<svg xmlns="http://www.w3.org/2000/svg"  viewBox="0 0 24 24" width="24px" height="24px"><path d="M18,3H6C4.346,3,3,4.346,3,6v12c0,1.654,1.346,3,3,3h12c1.654,0,3-1.346,3-3V6C21,4.346,19.654,3,18,3z M15.738,14.489	c0,0.608-0.358,1.857-1.843,1.857c-0.478,0-1.348-0.397-1.348-1.156s0.628-1.476,1.606-1.476c0.724,0,0.912-0.346,0.912-0.833	c0-0.278-0.029-2.794-0.038-3.524c-0.001-0.106-0.099-0.178-0.202-0.157l-4.328,0.891c-0.146,0.03-0.252,0.159-0.252,0.309v5.383	c0,0.608-0.405,1.644-1.693,1.644c-0.847,0-1.433-0.36-1.433-1.242c0-0.704,0.764-1.416,1.692-1.416c0.316,0,0.804-0.13,0.804-0.673	c0-0.45,0.015-4.574,0.02-5.965c0.001-0.266,0.189-0.493,0.45-0.545l5.037-1c0.318-0.063,0.615,0.18,0.615,0.505V14.489z"/></svg>