<?xml version="1.0" standalone="no"?>
<!DOCTYPE svg PUBLIC "-//W3C//DTD SVG 20010904//EN"
 "http://www.w3.org/TR/2001/REC-SVG-20010904/DTD/svg10.dtd">
<svg version="1.0" xmlns="http://www.w3.org/2000/svg"
 width="512.000000pt" height="512.000000pt" viewBox="0 0 512.000000 512.000000"
 preserveAspectRatio="xMidYMid meet">

<g transform="translate(0.000000,512.000000) scale(0.100000,-0.100000)"
fill="#000000" stroke="none">
<path d="M0 3370 l0 -1100 548 -2 547 -3 5 -95 c34 -652 -302 -1010 -983
-1047 l-117 -6 0 -234 0 -235 153 6 c509 22 845 79 1152 199 429 166 710 454
819 842 62 220 59 143 63 1518 l4 1257 -1096 0 -1095 0 0 -1100z"/>
<path d="M2930 3370 l0 -1100 545 0 544 0 7 -36 c4 -20 4 -108 1 -197 -4 -130
-10 -181 -30 -260 -107 -407 -423 -625 -949 -654 l-118 -6 0 -234 0 -235 158
7 c449 18 778 70 1062 167 523 179 825 499 929 980 38 178 41 287 41 1496 l0
1172 -1095 0 -1095 0 0 -1100z"/>
</g>
</svg>
